<svg data-v-70b83f88="" version="1.0" xmlns="http://www.w3.org/2000/svg" xmlns:xlink="http://www.w3.org/1999/xlink" width="100%" height="100%" viewBox="0 0 165 50" preserveAspectRatio="xMidYMid meet" color-interpolation-filters="sRGB" style="margin: auto;">  <g data-v-70b83f88="" fill="#000000" class="icon-text-wrapper icon-svg-group iconsvg" transform="translate(5,5)"><g class="iconsvg-imagesvg" transform="translate(0,0)" mask="url(#59300b12-7567-4d94-9504-9ca665ada0f5)"><g><rect fill="#000000" fill-opacity="0" stroke-width="2" x="0" y="0" width="41.999999999999986" height="41.999999999999986" class="image-rect"></rect> <svg filter="url(#colors8463453634)" x="0" y="0" width="41.999999999999986" height="41.999999999999986" filtersec="colorsf8742808852" class="image-svg-svg primary" style="overflow: visible;"><svg xmlns="http://www.w3.org/2000/svg" xmlns:xlink="http://www.w3.org/1999/xlink" version="1.1" x="0px" y="0px" viewBox="1 1 48 48" xml:space="preserve"><g d-rs="4" transform="matrix(-1,0,0,1,50,0)"><g><path d="M25,16.8c-4.5,0-8.2,3.7-8.2,8.2s3.7,8.2,8.2,8.2s8.2-3.7,8.2-8.2S29.5,16.8,25,16.8z M25,29c-2.2,0-4-1.8-4-4s1.8-4,4-4   c0.5,0,0.9,0.1,1.4,0.2c0.5,0.2,0.8,0.8,0.6,1.3c-0.2,0.5-0.8,0.8-1.3,0.6c-0.2,0-0.5-0.1-0.7-0.1c-1.1,0-2,0.9-2,2s0.9,2,2,2   s2-0.9,2-2v-0.1c-0.1-0.5,0.3-1.1,0.8-1.1c0.6-0.1,1.1,0.3,1.1,0.8c0,0.1,0,0.3,0,0.4C29,27.2,27.2,29,25,29z"></path><path d="M42.8,14.6c0-0.3-0.4-0.9-1-0.9c-4.2,0-8.4-2.2-8.4-7.2c0-0.6-0.4-1-1-1H17.6c-0.6,0-1,0.5-1,1c0,5-4.2,7.2-8.4,7.2   c-0.5,0-0.9,0.3-1,0.9v0.1l0,0c-1.5,12.7,5.6,24.9,17.4,29.7c0.1,0.1,0.3,0.1,0.4,0.1s0.3,0,0.4-0.1C37.2,39.5,44.4,27.2,42.8,14.6   z M25,35.2c-5.6,0-10.2-4.6-10.2-10.2S19.4,14.8,25,14.8S35.2,19.4,35.2,25S30.6,35.2,25,35.2z"></path><path d="M2,11.6c0.6,0,1-0.4,1-1V4.2C3,3.5,3.4,3,3.9,3h5.6c0.6,0,1-0.4,1-1s-0.4-1-1-1H3.9C2.3,1,1,2.4,1,4.2v6.4   C1,11.2,1.4,11.6,2,11.6z"></path><path d="M10.5,48c0-0.6-0.4-1-1-1H3.9C3.4,47,3,46.4,3,45.8v-6.3c0-0.6-0.4-1-1-1s-1,0.4-1,1v6.3C1,47.6,2.3,49,3.9,49h5.6   C10,49,10.5,48.6,10.5,48z"></path><path d="M48,38.5c-0.6,0-1,0.4-1,1v6.3c0,0.7-0.4,1.2-0.9,1.2h-5.6c-0.6,0-1,0.4-1,1s0.4,1,1,1h5.6c1.6,0,2.9-1.4,2.9-3.2v-6.3   C49,38.9,48.6,38.5,48,38.5z"></path><path d="M46.1,1h-5.6c-0.6,0-1,0.4-1,1s0.4,1,1,1h5.6C46.6,3,47,3.5,47,4.2v6.4c0,0.6,0.4,1,1,1s1-0.4,1-1V4.2   C49,2.4,47.7,1,46.1,1z"></path></g></g></svg></svg> <defs><filter id="colors8463453634"><feColorMatrix type="matrix" values="0 0 0 0 0.23828125  0 0 0 0 0.51953125  0 0 0 0 0.7734375  0 0 0 1 0" class="icon-fecolormatrix"></feColorMatrix></filter> <filter id="colorsf8742808852"><feColorMatrix type="matrix" values="0 0 0 0 0.99609375  0 0 0 0 0.99609375  0 0 0 0 0.99609375  0 0 0 1 0" class="icon-fecolormatrix"></feColorMatrix></filter> <filter id="colorsb6142129424"><feColorMatrix type="matrix" values="0 0 0 0 0  0 0 0 0 0  0 0 0 0 0  0 0 0 1 0" class="icon-fecolormatrix"></feColorMatrix></filter></defs></g><rect v-gra="id" width="54" height="54" transform="translate(-6, -6)" style="pointer-events:none;" fill="url(#If1RHj_mlRJXU52GBwH5w)"></rect></g> <g transform="translate(49,3)"><g data-gra="path-name" fill-rule="" class="tp-name iconsvg-namesvg"><g transform="scale(0.6399999999999997)"><g><path d="M12.66 0.5L12.66 0.5Q9.03 0.5 6.75-0.86 4.46-2.23 3.37-4.88 2.29-7.53 2.29-11.26L2.29-11.26 2.29-20.96Q2.29-24.81 3.37-27.43 4.46-30.05 6.77-31.39 9.09-32.73 12.66-32.73L12.66-32.73Q16.5-32.73 18.65-31.28 20.8-29.83 21.72-27.07 22.64-24.31 22.64-20.35L22.64-20.35 22.64-15.78 9.81-15.78 9.81-9.42Q9.81-7.86 10.12-6.86 10.43-5.85 11.1-5.41 11.76-4.96 12.71-4.96L12.71-4.96Q13.72-4.96 14.33-5.44 14.94-5.91 15.22-6.83 15.5-7.75 15.5-9.14L15.5-9.14 15.5-11.82 22.58-11.82 22.58-9.65Q22.58-4.74 20.13-2.12 17.67 0.5 12.66 0.5ZM9.81-21.74L9.81-19.51 15.5-19.51 15.5-22.58Q15.5-24.25 15.22-25.29 14.94-26.32 14.33-26.79 13.72-27.26 12.6-27.26L12.6-27.26Q11.6-27.26 10.98-26.76 10.37-26.26 10.09-25.09 9.81-23.92 9.81-21.74L9.81-21.74ZM29.44 8.75L27.99 8.75 27.99 3.29Q29.94 3.29 31.17 3.07 32.39 2.84 32.95 2.29 33.51 1.73 33.51 0.72L33.51 0.72Q33.51 0 33.15-1.56 32.78-3.12 32.34-4.96L32.34-4.96 25.26-32.23 32.62-32.23 36.8-10.98 40.42-32.23 47.73-32.23 40.2 1.28Q39.59 4.13 38.14 5.74 36.69 7.36 34.51 8.06 32.34 8.75 29.44 8.75L29.44 8.75ZM61 0.5L61 0.5Q57.37 0.5 55.09-0.86 52.8-2.23 51.71-4.88 50.63-7.53 50.63-11.26L50.63-11.26 50.63-20.96Q50.63-24.81 51.71-27.43 52.8-30.05 55.11-31.39 57.43-32.73 61-32.73L61-32.73Q64.84-32.73 66.99-31.28 69.14-29.83 70.06-27.07 70.98-24.31 70.98-20.35L70.98-20.35 70.98-15.78 58.15-15.78 58.15-9.42Q58.15-7.86 58.46-6.86 58.77-5.85 59.44-5.41 60.1-4.96 61.05-4.96L61.05-4.96Q62.06-4.96 62.67-5.44 63.28-5.91 63.56-6.83 63.84-7.75 63.84-9.14L63.84-9.14 63.84-11.82 70.92-11.82 70.92-9.65Q70.92-4.74 68.47-2.12 66.02 0.5 61 0.5ZM58.15-21.74L58.15-19.51 63.84-19.51 63.84-22.58Q63.84-24.25 63.56-25.29 63.28-26.32 62.67-26.79 62.06-27.26 60.94-27.26L60.94-27.26Q59.94-27.26 59.32-26.76 58.71-26.26 58.43-25.09 58.15-23.92 58.15-21.74L58.15-21.74ZM87.98 0.61L87.98 0.61Q83.91 0.61 81.18-0.98 78.45-2.56 77.05-5.63 75.66-8.7 75.49-13.16L75.49-13.16 82.57-14.55Q82.69-11.93 83.22-9.92 83.75-7.92 84.83-6.83 85.92-5.74 87.7-5.74L87.7-5.74Q89.71-5.74 90.55-6.94 91.38-8.14 91.38-9.98L91.38-9.98Q91.38-12.94 90.05-14.83 88.71-16.73 86.48-18.62L86.48-18.62 80.79-23.64Q78.39-25.7 76.97-28.24 75.55-30.78 75.55-34.51L75.55-34.51Q75.55-39.87 78.67-42.76 81.79-45.66 87.2-45.66L87.2-45.66Q90.38-45.66 92.5-44.69 94.62-43.71 95.87-41.98 97.13-40.26 97.74-38.05 98.35-35.85 98.52-33.4L98.52-33.4 91.5-32.17Q91.38-34.29 91.02-35.96 90.66-37.64 89.74-38.58 88.82-39.53 87.04-39.53L87.04-39.53Q85.2-39.53 84.22-38.33 83.24-37.13 83.24-35.35L83.24-35.35Q83.24-33.06 84.19-31.59 85.14-30.11 86.92-28.55L86.92-28.55 92.55-23.58Q95.34-21.24 97.32-18.09 99.3-14.94 99.3-10.48L99.3-10.48Q99.3-7.25 97.88-4.74 96.46-2.23 93.92-0.81 91.38 0.61 87.98 0.61ZM110.79 10.59L103.2 10.59 103.2-32.23 110.79-32.23 110.79-29.77Q112.18-31.11 113.85-31.92 115.53-32.73 117.37-32.73L117.37-32.73Q119.54-32.73 120.93-31.73 122.33-30.72 123.11-29.08 123.89-27.43 124.2-25.56 124.5-23.7 124.5-21.97L124.5-21.97 124.5-11.04Q124.5-7.86 123.75-5.24 123-2.62 121.35-1.06 119.71 0.5 116.98 0.5L116.98 0.5Q115.25 0.5 113.71-0.33 112.18-1.17 110.79-2.45L110.79-2.45 110.79 10.59ZM114.13-4.8L114.13-4.8Q115.36-4.8 115.94-5.6 116.53-6.41 116.73-7.78 116.92-9.14 116.92-10.76L116.92-10.76 116.92-22.3Q116.92-23.81 116.7-25.01 116.47-26.21 115.86-26.93 115.25-27.65 114.08-27.65L114.08-27.65Q113.18-27.65 112.32-27.24 111.46-26.82 110.79-26.26L110.79-26.26 110.79-5.91Q111.51-5.41 112.35-5.1 113.18-4.8 114.13-4.8ZM131.42 8.75L129.97 8.75 129.97 3.29Q131.92 3.29 133.15 3.07 134.37 2.84 134.93 2.29 135.49 1.73 135.49 0.72L135.49 0.72Q135.49 0 135.12-1.56 134.76-3.12 134.32-4.96L134.32-4.96 127.24-32.23 134.59-32.23 138.78-10.98 142.4-32.23 149.7-32.23 142.18 1.28Q141.56 4.13 140.11 5.74 138.67 7.36 136.49 8.06 134.32 8.75 131.42 8.75L131.42 8.75ZM160.97 0L153.38 0 153.38-32.23 160.97-32.23 160.97-27.26Q162.64-30.11 164.31-31.36 165.99-32.62 167.99-32.62L167.99-32.62Q168.33-32.62 168.58-32.59 168.83-32.56 169.16-32.51L169.16-32.51 169.16-24.64Q168.49-24.92 167.69-25.12 166.88-25.31 166.04-25.31L166.04-25.31Q164.54-25.31 163.31-24.59 162.08-23.86 160.97-22.19L160.97-22.19 160.97 0Z" transform="translate(-2.2899999618530273, 45.65999984741211)"></path></g> <!----> <!----> <!----> <!----> <!----> <!----> <!----></g></g> <!----></g></g><defs v-gra="od"></defs><defs v-gra="id"><filter id="c370d063-6ca0-432a-8714-769b60b7f46d" filterUnits="userSpaceOnUse"><feColorMatrix type="matrix" values="0 0 0 0 0.99609375  0 0 0 0 0.99609375  0 0 0 0 0.99609375  0 0 0 1 0"></feColorMatrix></filter><linearGradient x1="0" y1="1" x2="0" y2="0" id="If1RHj_mlRJXU52GBwH5w"><stop offset="0%" stop-color="#00c5fb"></stop><stop offset="100%" stop-color="#175bea"></stop></linearGradient><filter id="42443b3f1de60f6b6fd3b6a9844b4764" filterUnits="userSpaceOnUse"><feColorMatrix type="matrix" values="0 0 0 0 0.99609375  0 0 0 0 0.99609375  0 0 0 0 0.99609375  0 0 0 1 0"></feColorMatrix></filter></defs><mask v-gra="im" id="59300b12-7567-4d94-9504-9ca665ada0f5"><g class="iconsvg-imagesvg" filter="url(#c370d063-6ca0-432a-8714-769b60b7f46d)"><g><rect fill="#000000" fill-opacity="0" stroke-width="2" x="0" y="0" width="41.999999999999986" height="41.999999999999986" class="image-rect"></rect> <svg x="0" y="0" width="41.999999999999986" height="41.999999999999986" filtersec="colorsf8742808852" class="image-svg-svg primary" style="overflow: visible;"><svg xmlns="http://www.w3.org/2000/svg" xmlns:xlink="http://www.w3.org/1999/xlink" version="1.1" x="0px" y="0px" viewBox="1 1 48 48" xml:space="preserve"><g d-rs="4" transform="matrix(-1,0,0,1,50,0)"><g><path d="M25,16.8c-4.5,0-8.2,3.7-8.2,8.2s3.7,8.2,8.2,8.2s8.2-3.7,8.2-8.2S29.5,16.8,25,16.8z M25,29c-2.2,0-4-1.8-4-4s1.8-4,4-4   c0.5,0,0.9,0.1,1.4,0.2c0.5,0.2,0.8,0.8,0.6,1.3c-0.2,0.5-0.8,0.8-1.3,0.6c-0.2,0-0.5-0.1-0.7-0.1c-1.1,0-2,0.9-2,2s0.9,2,2,2   s2-0.9,2-2v-0.1c-0.1-0.5,0.3-1.1,0.8-1.1c0.6-0.1,1.1,0.3,1.1,0.8c0,0.1,0,0.3,0,0.4C29,27.2,27.2,29,25,29z"></path><path d="M42.8,14.6c0-0.3-0.4-0.9-1-0.9c-4.2,0-8.4-2.2-8.4-7.2c0-0.6-0.4-1-1-1H17.6c-0.6,0-1,0.5-1,1c0,5-4.2,7.2-8.4,7.2   c-0.5,0-0.9,0.3-1,0.9v0.1l0,0c-1.5,12.7,5.6,24.9,17.4,29.7c0.1,0.1,0.3,0.1,0.4,0.1s0.3,0,0.4-0.1C37.2,39.5,44.4,27.2,42.8,14.6   z M25,35.2c-5.6,0-10.2-4.6-10.2-10.2S19.4,14.8,25,14.8S35.2,19.4,35.2,25S30.6,35.2,25,35.2z"></path><path d="M2,11.6c0.6,0,1-0.4,1-1V4.2C3,3.5,3.4,3,3.9,3h5.6c0.6,0,1-0.4,1-1s-0.4-1-1-1H3.9C2.3,1,1,2.4,1,4.2v6.4   C1,11.2,1.4,11.6,2,11.6z"></path><path d="M10.5,48c0-0.6-0.4-1-1-1H3.9C3.4,47,3,46.4,3,45.8v-6.3c0-0.6-0.4-1-1-1s-1,0.4-1,1v6.3C1,47.6,2.3,49,3.9,49h5.6   C10,49,10.5,48.6,10.5,48z"></path><path d="M48,38.5c-0.6,0-1,0.4-1,1v6.3c0,0.7-0.4,1.2-0.9,1.2h-5.6c-0.6,0-1,0.4-1,1s0.4,1,1,1h5.6c1.6,0,2.9-1.4,2.9-3.2v-6.3   C49,38.9,48.6,38.5,48,38.5z"></path><path d="M46.1,1h-5.6c-0.6,0-1,0.4-1,1s0.4,1,1,1h5.6C46.6,3,47,3.5,47,4.2v6.4c0,0.6,0.4,1,1,1s1-0.4,1-1V4.2   C49,2.4,47.7,1,46.1,1z"></path></g></g></svg></svg> <defs><filter id="colors8463453634"><feColorMatrix type="matrix" values="0 0 0 0 0.23828125  0 0 0 0 0.51953125  0 0 0 0 0.7734375  0 0 0 1 0" class="icon-fecolormatrix"></feColorMatrix></filter> <filter id="colorsf8742808852"><feColorMatrix type="matrix" values="0 0 0 0 0.99609375  0 0 0 0 0.99609375  0 0 0 0 0.99609375  0 0 0 1 0" class="icon-fecolormatrix"></feColorMatrix></filter> <filter id="colorsb6142129424"><feColorMatrix type="matrix" values="0 0 0 0 0  0 0 0 0 0  0 0 0 0 0  0 0 0 1 0" class="icon-fecolormatrix"></feColorMatrix></filter></defs></g></g></mask></svg>